# xmcd
#
# Track frame offsets:
#	150
#	20526
#	42955
#	60220
#	77253
#	95321
#	110252
#	130588
#	153075
#	170338
#	187419
#	205522
#
# Disc length: 2939 seconds
#
# Revision: 1
# Processed by: cddbd v1.5.2PL0 Copyright (c) Steve Scherf et al.
# Submitted via: audiograbber 1.83.01
#
DISCID=840b790c
DTITLE=Dixie Chicks - Volume 2
DYEAR=1900
DGENRE=Country
TTITLE0=Goodbye Earl
TTITLE1=Cowboy Take Me Away
TTITLE2=Sin Wagon
TTITLE3=Without You
TTITLE4=Hello Mr. Heartache
TTITLE5=Let Him Fly
TTITLE6=Goodbye Earl
TTITLE7=Cowboy Take Me Away
TTITLE8=Sin Wagon
TTITLE9=Without You
TTITLE10=Hello Mr. Heartache
TTITLE11=Let Him Fly
EXTD=
EXTT0=
EXTT1=
EXTT2=
EXTT3=
EXTT4=
EXTT5=
EXTT6=
EXTT7=
EXTT8=
EXTT9=
EXTT10=
EXTT11=
PLAYORDER=
